<svg version="1.1" id="Layer_1" xmlns="http://www.w3.org/2000/svg" xmlns:xlink="http://www.w3.org/1999/xlink" x="0px" y="0px"
	 width="100%" viewBox="0 0 742 301" enable-background="new 0 0 742 301" xml:space="preserve">
<path fill="#FFFEFE" opacity="1.000000" stroke="none" 
	d="
M457.000000,302.000000 
	C304.703033,302.000000 152.906052,302.000000 1.054544,302.000000 
	C1.054544,201.727081 1.054544,101.454132 1.054544,1.090588 
	C248.213669,1.090588 495.427399,1.090588 742.820557,1.090588 
	C742.820557,101.333084 742.820557,201.666504 742.820557,302.000000 
	C647.787415,302.000000 552.643677,302.000000 457.000000,302.000000 
M210.788666,92.060417 
	C210.910568,91.711876 211.032471,91.363335 211.729706,90.590050 
	C212.165268,89.513054 212.649323,88.452850 213.028931,87.356483 
	C217.156693,75.434662 213.158600,63.037823 203.116455,56.570049 
	C192.659424,49.835060 179.857468,50.975380 170.364548,59.487404 
	C162.052277,66.940773 160.196930,80.197342 166.070801,91.759850 
	C172.356094,100.911041 180.586533,105.895561 192.703247,103.999496 
	C193.114578,103.910492 193.525909,103.821487 194.677109,103.833954 
	C197.815948,102.243591 200.954788,100.653229 204.019257,99.010185 
	C204.019257,99.010185 204.054337,99.094299 204.705963,98.946640 
	C206.174881,97.321419 207.643784,95.696205 209.023788,94.016022 
	C209.023788,94.016022 209.076218,94.106453 209.638535,93.863777 
	C209.875229,93.315224 210.111923,92.766670 210.228256,92.177391 
	C210.228256,92.177391 210.277466,92.294556 210.788666,92.060417 
M552.331970,226.219101 
	C550.447693,227.339355 548.563416,228.459610 546.651184,229.647797 
	C546.651184,229.647797 546.580505,229.627701 545.891724,229.695526 
	C543.928040,230.802933 541.964355,231.910339 540.000671,233.017746 
	C574.049805,233.810806 607.647705,233.822220 641.245544,233.797165 
	C645.727173,233.793808 650.241333,233.907349 654.682190,233.427597 
	C660.399231,232.809998 664.955139,228.014832 664.984802,222.361313 
	C665.067627,206.571869 664.843018,190.780807 664.869995,174.353973 
	C664.821289,173.925476 664.772522,173.496979 664.964539,172.282059 
	C664.863098,171.207901 664.761658,170.133743 664.594360,168.361542 
	C659.306580,171.241486 654.484070,173.868027 649.602844,176.570053 
	C649.602844,176.570053 649.507751,176.579529 648.840942,176.689682 
	C647.129944,177.670044 645.418884,178.650406 643.825012,179.992111 
	C643.825012,179.992111 643.692383,179.631592 642.971802,179.699356 
	C634.872437,183.966263 626.773132,188.233170 618.619690,192.582458 
	C618.619690,192.582458 618.527222,192.616592 617.825562,192.725952 
	C614.530762,194.472595 611.235901,196.219238 607.391479,198.063019 
	C606.935425,198.371994 606.479370,198.680969 605.301270,199.070312 
	C601.163757,201.339188 597.026245,203.608063 592.921509,205.962860 
	C592.921509,205.962860 592.953674,205.876755 592.318176,205.894775 
	C591.435608,206.430786 590.553040,206.966797 589.765320,207.785263 
	C589.765320,207.785263 589.615601,207.527618 588.750366,207.668030 
	C587.976074,208.070770 587.201782,208.473511 586.565369,208.939133 
	C586.565369,208.939133 586.547913,208.940308 585.816162,209.123795 
	C583.117126,210.630600 580.418030,212.137390 577.664429,213.789291 
	C577.664429,213.789291 577.662537,213.634308 576.963013,213.752731 
	C573.915527,215.447647 570.868042,217.142563 567.965820,218.931656 
	C567.965820,218.931656 567.855347,218.798386 567.131042,218.895813 
	C562.722717,221.242279 558.314453,223.588745 553.974365,225.982727 
	C553.974365,225.982727 553.961853,225.900513 553.444946,225.879852 
	C553.299744,225.972595 553.154480,226.065353 552.331970,226.219101 
M566.099487,103.228340 
	C558.049866,99.171562 550.000244,95.114784 541.443604,90.597092 
	C532.145386,85.768890 522.828369,80.976509 513.554932,76.101219 
	C506.056671,72.159218 502.819458,74.141014 502.820862,82.805046 
	C502.827484,123.123276 502.837891,163.441513 502.855347,203.759735 
	C502.859161,212.536682 506.128876,214.643646 513.754456,210.713760 
	C538.746155,197.834167 563.719971,184.919632 588.700256,172.017868 
	C603.184692,164.536957 617.731079,157.171326 632.089905,149.456589 
	C634.440674,148.193604 637.223328,145.521957 637.460510,143.255859 
	C637.641907,141.522705 634.358887,139.061722 632.185791,137.539978 
	C629.483276,135.647461 626.344299,134.374222 623.381226,132.858215 
	C604.438538,123.166435 585.492432,113.481384 566.099487,103.228340 
M417.966675,232.749741 
	C434.956116,232.708130 451.945587,232.666534 469.520477,232.818665 
	C469.715271,232.752945 469.910034,232.687241 470.731506,232.890320 
	C474.809174,232.961182 476.315216,230.693542 476.303741,226.904343 
	C476.273041,216.743408 476.303375,206.582306 476.288940,196.421295 
	C476.283234,192.402893 474.386505,190.153198 470.215820,190.220825 
	C465.061798,190.304398 459.906311,190.599655 454.755768,190.521027 
	C446.599365,190.396500 438.418945,190.365997 430.300110,189.683807 
	C422.426117,189.022186 418.278503,182.657196 418.169159,171.321274 
	C417.992371,152.999832 417.958893,134.673904 418.153351,116.352951 
	C418.303741,102.182381 423.075897,97.601517 437.196899,97.231926 
	C437.862915,97.214493 438.529144,97.196999 439.195343,97.195778 
	C449.347870,97.177094 459.500977,97.093102 469.652710,97.175285 
	C474.233002,97.212364 476.379547,95.286339 476.325470,90.599800 
	C476.212097,80.773232 476.337250,70.944145 476.273499,61.116684 
	C476.240204,55.978916 474.491882,54.312939 469.277496,54.308277 
	C453.453033,54.294121 437.606018,53.828526 421.813629,54.546688 
	C413.998444,54.902088 405.795990,56.291183 398.618011,59.263512 
	C379.476959,67.189613 371.127747,83.003738 370.280762,103.026215 
	C369.022339,132.776535 368.456390,162.525375 371.122070,192.261169 
	C372.999695,213.205902 393.802063,232.511383 415.644592,232.526596 
	C416.131378,232.478256 416.618164,232.429916 417.966675,232.749741 
M106.370399,200.705841 
	C106.366516,209.366379 106.375374,218.026932 106.353310,226.687424 
	C106.342438,230.953201 108.127083,233.028687 112.692757,232.971298 
	C125.681442,232.808060 138.675262,233.042114 151.663589,232.864639 
	C158.954575,232.764999 166.353195,232.846756 173.504166,231.653397 
	C194.251846,228.190964 209.783066,212.099182 211.128586,191.617416 
	C212.490326,170.888779 212.452728,150.068497 213.046799,129.288910 
	C213.167267,125.075851 210.804886,123.876053 207.037689,123.895462 
	C195.046631,123.957260 183.054947,123.884895 171.063568,123.906319 
	C165.607132,123.916061 164.165558,125.430328 164.153671,131.110626 
	C164.130997,141.936203 164.198822,152.762177 164.128510,163.587341 
	C164.096191,168.562790 164.303696,173.610352 163.550232,178.493729 
	C162.468658,185.503693 158.041565,189.510483 151.589752,189.751099 
	C139.611450,190.197845 127.622955,190.541458 115.637718,190.574860 
	C106.984062,190.598969 106.378639,190.940063 106.370399,200.705841 
M243.278839,171.226578 
	C243.795853,177.695389 244.582932,184.155975 244.779724,190.634521 
	C245.395126,210.894882 263.360382,231.233856 288.607300,232.511215 
	C306.884979,233.435974 325.240479,232.774261 343.559967,232.955170 
	C348.037994,232.999390 349.970612,230.982468 349.964569,226.684311 
	C349.950562,216.688599 350.014771,206.692352 349.929260,196.697342 
	C349.888702,191.956726 347.821472,190.222427 343.151978,190.224869 
	C332.189026,190.230621 321.220734,190.313293 310.264343,190.011703 
	C296.136932,189.622818 292.525543,185.868866 291.872833,171.659378 
	C291.781128,169.663910 291.821472,167.661865 291.819916,165.662842 
	C291.810638,153.834244 291.741547,142.005127 291.835724,130.177322 
	C291.870422,125.820190 290.218842,123.807930 285.633209,123.869522 
	C273.473602,124.032860 261.309418,124.003632 249.148911,123.874893 
	C244.912857,123.830048 243.015137,125.635063 243.039795,129.795410 
	C243.119781,143.288925 243.156982,156.782669 243.278839,171.226578 
M235.268143,90.095230 
	C235.659561,97.057083 236.533875,97.914078 243.194107,97.903236 
	C249.352066,97.893211 255.510010,97.890541 261.667969,97.889664 
	C288.463470,97.885841 315.259003,97.896355 342.054504,97.872681 
	C348.995239,97.866547 350.060608,96.710114 350.051697,89.673370 
	C350.040100,80.519730 350.081085,71.365952 350.045197,62.212440 
	C350.024750,56.998325 348.349670,55.192051 343.333893,55.186802 
	C309.714752,55.151642 276.095520,55.147846 242.476318,55.175610 
	C236.793961,55.180302 235.328613,56.647419 235.293320,62.210564 
	C235.236282,71.197540 235.270813,80.185104 235.268143,90.095230 
M567.854492,68.604553 
	C599.900513,85.277176 631.946533,101.949799 664.592651,118.934639 
	C664.747375,116.894913 664.881104,115.946884 664.881958,114.998741 
	C664.895752,99.356705 664.941711,83.714455 664.873352,68.072716 
	C664.838745,60.141937 659.663635,55.077213 651.648499,55.068127 
	C617.706299,55.029636 583.764099,55.034279 549.821899,55.046482 
	C548.437866,55.046978 547.053894,55.282497 544.189087,55.543358 
	C552.736267,60.248585 559.979553,64.236000 567.854492,68.604553 
z"/>
<path fill="#141414" opacity="1.000000" stroke="none" 
	d="
M468.935028,232.624939 
	C451.945587,232.666534 434.956116,232.708130 417.387573,232.277191 
	C416.177216,231.995560 415.545959,232.186478 414.914673,232.377411 
	C393.802063,232.511383 372.999695,213.205902 371.122070,192.261169 
	C368.456390,162.525375 369.022339,132.776535 370.280762,103.026215 
	C371.127747,83.003738 379.476959,67.189613 398.618011,59.263512 
	C405.795990,56.291183 413.998444,54.902088 421.813629,54.546688 
	C437.606018,53.828526 453.453033,54.294121 469.277496,54.308277 
	C474.491882,54.312939 476.240204,55.978916 476.273499,61.116684 
	C476.337250,70.944145 476.212097,80.773232 476.325470,90.599800 
	C476.379547,95.286339 474.233002,97.212364 469.652710,97.175285 
	C459.500977,97.093102 449.347870,97.177094 439.195343,97.195778 
	C438.529144,97.196999 437.862915,97.214493 437.196899,97.231926 
	C423.075897,97.601517 418.303741,102.182381 418.153351,116.352951 
	C417.958893,134.673904 417.992371,152.999832 418.169159,171.321274 
	C418.278503,182.657196 422.426117,189.022186 430.300110,189.683807 
	C438.418945,190.365997 446.599365,190.396500 454.755768,190.521027 
	C459.906311,190.599655 465.061798,190.304398 470.215820,190.220825 
	C474.386505,190.153198 476.283234,192.402893 476.288940,196.421295 
	C476.303375,206.582306 476.273041,216.743408 476.303741,226.904343 
	C476.315216,230.693542 474.809174,232.961182 470.323669,232.497406 
	C469.588928,232.277954 469.261963,232.451447 468.935028,232.624939 
z"/>
<path fill="#DF0C19" opacity="1.000000" stroke="none" 
	d="
M566.547424,103.794136 
	C585.492432,113.481384 604.438538,123.166435 623.381226,132.858215 
	C626.344299,134.374222 629.483276,135.647461 632.185791,137.539978 
	C634.358887,139.061722 637.641907,141.522705 637.460510,143.255859 
	C637.223328,145.521957 634.440674,148.193604 632.089905,149.456589 
	C617.731079,157.171326 603.184692,164.536957 588.700256,172.017868 
	C563.719971,184.919632 538.746155,197.834167 513.754456,210.713760 
	C506.128876,214.643646 502.859161,212.536682 502.855347,203.759735 
	C502.837891,163.441513 502.827484,123.123276 502.820862,82.805046 
	C502.819458,74.141014 506.056671,72.159218 513.554932,76.101219 
	C522.828369,80.976509 532.145386,85.768890 541.726074,91.211975 
	C542.134338,92.305435 542.108765,93.054428 542.408386,93.222038 
	C547.027100,95.805222 551.573975,98.563667 556.379395,100.749634 
	C559.570129,102.201088 563.144653,102.808754 566.547424,103.794136 
M546.911377,99.284760 
	C546.965271,99.774261 547.019104,100.263771 547.072998,100.753265 
	C547.513489,100.640526 547.954041,100.527794 548.394531,100.415062 
	C548.096619,99.997650 547.798706,99.580238 546.911377,99.284760 
z"/>
<path fill="#030303" opacity="1.000000" stroke="none" 
	d="
M106.370361,200.238052 
	C106.378639,190.940063 106.984062,190.598969 115.637718,190.574860 
	C127.622955,190.541458 139.611450,190.197845 151.589752,189.751099 
	C158.041565,189.510483 162.468658,185.503693 163.550232,178.493729 
	C164.303696,173.610352 164.096191,168.562790 164.128510,163.587341 
	C164.198822,152.762177 164.130997,141.936203 164.153671,131.110626 
	C164.165558,125.430328 165.607132,123.916061 171.063568,123.906319 
	C183.054947,123.884895 195.046631,123.957260 207.037689,123.895462 
	C210.804886,123.876053 213.167267,125.075851 213.046799,129.288910 
	C212.452728,150.068497 212.490326,170.888779 211.128586,191.617416 
	C209.783066,212.099182 194.251846,228.190964 173.504166,231.653397 
	C166.353195,232.846756 158.954575,232.764999 151.663589,232.864639 
	C138.675262,233.042114 125.681442,232.808060 112.692757,232.971298 
	C108.127083,233.028687 106.342438,230.953201 106.353310,226.687424 
	C106.375374,218.026932 106.366516,209.366379 106.370361,200.238052 
z"/>
<path fill="#141414" opacity="1.000000" stroke="none" 
	d="
M243.244751,170.751465 
	C243.156982,156.782669 243.119781,143.288925 243.039795,129.795410 
	C243.015137,125.635063 244.912857,123.830048 249.148911,123.874893 
	C261.309418,124.003632 273.473602,124.032860 285.633209,123.869522 
	C290.218842,123.807930 291.870422,125.820190 291.835724,130.177322 
	C291.741547,142.005127 291.810638,153.834244 291.819916,165.662842 
	C291.821472,167.661865 291.781128,169.663910 291.872833,171.659378 
	C292.525543,185.868866 296.136932,189.622818 310.264343,190.011703 
	C321.220734,190.313293 332.189026,190.230621 343.151978,190.224869 
	C347.821472,190.222427 349.888702,191.956726 349.929260,196.697342 
	C350.014771,206.692352 349.950562,216.688599 349.964569,226.684311 
	C349.970612,230.982468 348.037994,232.999390 343.559967,232.955170 
	C325.240479,232.774261 306.884979,233.435974 288.607300,232.511215 
	C263.360382,231.233856 245.395126,210.894882 244.779724,190.634521 
	C244.582932,184.155975 243.795853,177.695389 243.244751,170.751465 
z"/>
<path fill="#151515" opacity="1.000000" stroke="none" 
	d="
M235.267395,89.633820 
	C235.270813,80.185104 235.236282,71.197540 235.293320,62.210564 
	C235.328613,56.647419 236.793961,55.180302 242.476318,55.175610 
	C276.095520,55.147846 309.714752,55.151642 343.333893,55.186802 
	C348.349670,55.192051 350.024750,56.998325 350.045197,62.212440 
	C350.081085,71.365952 350.040100,80.519730 350.051697,89.673370 
	C350.060608,96.710114 348.995239,97.866547 342.054504,97.872681 
	C315.259003,97.896355 288.463470,97.885841 261.667969,97.889664 
	C255.510010,97.890541 249.352066,97.893211 243.194107,97.903236 
	C236.533875,97.914078 235.659561,97.057083 235.267395,89.633820 
z"/>
<path fill="#DC101B" opacity="1.000000" stroke="none" 
	d="
M567.538635,68.413986 
	C559.979553,64.236000 552.736267,60.248585 544.189087,55.543358 
	C547.053894,55.282497 548.437866,55.046978 549.821899,55.046482 
	C583.764099,55.034279 617.706299,55.029636 651.648499,55.068127 
	C659.663635,55.077213 664.838745,60.141937 664.873352,68.072716 
	C664.941711,83.714455 664.895752,99.356705 664.881958,114.998741 
	C664.881104,115.946884 664.747375,116.894913 664.592651,118.934639 
	C631.946533,101.949799 599.900513,85.277176 567.538635,68.413986 
M613.198120,81.321342 
	C611.993896,80.818283 610.758484,80.378304 609.591614,79.799835 
	C606.611084,78.322220 605.176331,79.547066 604.378235,82.458885 
	C606.874878,82.974304 609.072144,83.634048 611.301819,83.773323 
	C612.054077,83.820312 612.888794,82.547417 613.198120,81.321342 
z"/>
<path fill="#E00B17" opacity="1.000000" stroke="none" 
	d="
M664.723755,173.068481 
	C664.772522,173.496979 664.821289,173.925476 664.554504,175.002472 
	C664.149475,188.950150 664.040161,202.249237 663.976501,215.548553 
	C663.924377,226.460327 659.195618,231.664841 648.398682,232.030640 
	C640.646118,232.293289 632.877625,232.081406 625.116211,232.081360 
	C608.479736,232.081299 591.842712,232.149139 575.207153,232.024490 
	C571.854553,231.999359 568.507324,231.244537 564.665161,230.764648 
	C561.875244,234.489578 557.336731,232.972839 553.244812,232.480957 
	C550.942322,232.204193 548.796753,230.621872 546.580505,229.627701 
	C546.580505,229.627701 546.651184,229.647797 547.045654,229.716492 
	C549.302795,228.863739 551.165405,227.942276 553.255066,226.900391 
	C553.642029,226.486816 553.801941,226.193665 553.961853,225.900513 
	C553.961853,225.900513 553.974365,225.982727 554.354797,225.994644 
	C560.031738,225.284149 565.287231,224.486954 567.855347,218.798386 
	C567.855347,218.798386 567.965820,218.931656 568.293640,218.945587 
	C571.635132,217.184464 574.648865,215.409393 577.662537,213.634308 
	C577.662537,213.634308 577.664429,213.789291 578.093750,213.833771 
	C583.044434,213.200516 587.669861,212.704300 589.615601,207.527618 
	C589.615601,207.527618 589.765320,207.785263 590.053345,207.782776 
	C591.212097,207.145782 592.082886,206.511276 592.953674,205.876770 
	C592.953674,205.876755 592.921509,205.962860 593.299438,205.970932 
	C598.147034,204.275146 603.392212,203.941360 606.023315,198.989960 
	C606.479370,198.680969 606.935425,198.371994 607.909607,198.279999 
	C613.525696,199.510620 615.758118,195.602753 618.527222,192.616592 
	C618.527222,192.616592 618.619690,192.582458 619.052307,192.671997 
	C622.801575,191.396240 626.499268,190.567337 629.348206,188.543625 
	C633.965393,185.263855 641.078369,186.017929 643.692383,179.631592 
	C643.692383,179.631592 643.825012,179.992111 644.182251,179.929184 
	C646.793640,179.674637 650.011536,180.939926 649.507751,176.579529 
	C649.507751,176.579529 649.602844,176.570053 650.004883,176.663559 
	C652.843750,175.768280 655.215210,174.531967 657.737183,173.864731 
	C659.979309,173.271530 662.388367,173.309235 664.723755,173.068481 
z"/>
<path fill="#DF0D19" opacity="1.000000" stroke="none" 
	d="
M165.941238,91.092041 
	C160.196930,80.197342 162.052277,66.940773 170.364548,59.487404 
	C179.857468,50.975380 192.659424,49.835060 203.116455,56.570049 
	C213.158600,63.037823 217.156693,75.434662 213.028931,87.356483 
	C212.649323,88.452850 212.165268,89.513054 211.170929,90.913574 
	C210.500595,91.589584 210.389023,91.942070 210.277466,92.294556 
	C210.277466,92.294556 210.228256,92.177391 209.966766,92.264847 
	C209.495590,92.937019 209.285904,93.521736 209.076218,94.106453 
	C209.076218,94.106453 209.023788,94.016022 208.712601,94.039612 
	C206.952377,95.740234 205.503357,97.417267 204.054337,99.094299 
	C204.054337,99.094299 204.019257,99.010185 203.645706,99.005058 
	C200.160522,100.577454 197.048874,102.154968 193.937241,103.732483 
	C193.525909,103.821487 193.114578,103.910492 192.091919,103.690109 
	C185.140671,101.133026 178.688110,99.148705 172.515671,96.509331 
	C170.010162,95.437950 168.114426,92.940567 165.941238,91.092041 
z"/>
<path fill="#C8353C" opacity="1.000000" stroke="none" 
	d="
M546.236084,229.661621 
	C548.796753,230.621872 550.942322,232.204193 553.244812,232.480957 
	C557.336731,232.972839 561.875244,234.489578 564.665161,230.764648 
	C568.507324,231.244537 571.854553,231.999359 575.207153,232.024490 
	C591.842712,232.149139 608.479736,232.081299 625.116211,232.081360 
	C632.877625,232.081406 640.646118,232.293289 648.398682,232.030640 
	C659.195618,231.664841 663.924377,226.460327 663.976501,215.548553 
	C664.040161,202.249237 664.149475,188.950150 664.489380,175.320679 
	C664.843018,190.780807 665.067627,206.571869 664.984802,222.361313 
	C664.955139,228.014832 660.399231,232.809998 654.682190,233.427597 
	C650.241333,233.907349 645.727173,233.793808 641.245544,233.797165 
	C607.647705,233.822220 574.049805,233.810806 540.000671,233.017746 
	C541.964355,231.910339 543.928040,230.802933 546.236084,229.661621 
z"/>
<path fill="#BE282F" opacity="1.000000" stroke="none" 
	d="
M166.006012,91.425949 
	C168.114426,92.940567 170.010162,95.437950 172.515671,96.509331 
	C178.688110,99.148705 185.140671,101.133026 191.778107,103.640320 
	C180.586533,105.895561 172.356094,100.911041 166.006012,91.425949 
z"/>
<path fill="#C8353C" opacity="1.000000" stroke="none" 
	d="
M643.332092,179.665466 
	C641.078369,186.017929 633.965393,185.263855 629.348206,188.543625 
	C626.499268,190.567337 622.801575,191.396240 619.079346,192.630798 
	C626.773132,188.233170 634.872437,183.966263 643.332092,179.665466 
z"/>
<path fill="#C5232C" opacity="1.000000" stroke="none" 
	d="
M566.323486,103.511230 
	C563.144653,102.808754 559.570129,102.201088 556.379395,100.749634 
	C551.573975,98.563667 547.027100,95.805222 542.408386,93.222038 
	C542.108765,93.054428 542.134338,92.305435 541.979614,91.442429 
	C550.000244,95.114784 558.049866,99.171562 566.323486,103.511230 
z"/>
<path fill="#C8353C" opacity="1.000000" stroke="none" 
	d="
M664.844116,172.675262 
	C662.388367,173.309235 659.979309,173.271530 657.737183,173.864731 
	C655.215210,174.531967 652.843750,175.768280 650.034180,176.625824 
	C654.484070,173.868027 659.306580,171.241486 664.594360,168.361542 
	C664.761658,170.133743 664.863098,171.207901 664.844116,172.675262 
z"/>
<path fill="#BD272F" opacity="1.000000" stroke="none" 
	d="
M567.493164,218.847107 
	C565.287231,224.486954 560.031738,225.284149 554.320679,225.970886 
	C558.314453,223.588745 562.722717,221.242279 567.493164,218.847107 
z"/>
<path fill="#C8353C" opacity="1.000000" stroke="none" 
	d="
M618.176392,192.671265 
	C615.758118,195.602753 613.525696,199.510620 608.184448,198.231415 
	C611.235901,196.219238 614.530762,194.472595 618.176392,192.671265 
z"/>
<path fill="#C8353C" opacity="1.000000" stroke="none" 
	d="
M605.662292,199.030121 
	C603.392212,203.941360 598.147034,204.275146 593.283081,205.927979 
	C597.026245,203.608063 601.163757,201.339188 605.662292,199.030121 
z"/>
<path fill="#BD272F" opacity="1.000000" stroke="none" 
	d="
M589.182983,207.597824 
	C587.669861,212.704300 583.044434,213.200516 578.120972,213.761230 
	C580.418030,212.137390 583.117126,210.630600 586.154785,209.020020 
	C586.493347,208.916245 586.427490,208.876266 586.427490,208.876251 
	C587.201782,208.473511 587.976074,208.070770 589.182983,207.597824 
z"/>
<path fill="#BE282F" opacity="1.000000" stroke="none" 
	d="
M194.307175,103.783218 
	C197.048874,102.154968 200.160522,100.577454 203.682892,99.031403 
	C200.954788,100.653229 197.815948,102.243591 194.307175,103.783218 
z"/>
<path fill="#BD272F" opacity="1.000000" stroke="none" 
	d="
M577.312744,213.693512 
	C574.648865,215.409393 571.635132,217.184464 568.221008,218.898499 
	C570.868042,217.142563 573.915527,215.447647 577.312744,213.693512 
z"/>
<path fill="#C8353C" opacity="1.000000" stroke="none" 
	d="
M649.174316,176.634613 
	C650.011536,180.939926 646.793640,179.674637 644.123718,179.748505 
	C645.418884,178.650406 647.129944,177.670044 649.174316,176.634613 
z"/>
<path fill="#C8353C" opacity="1.000000" stroke="none" 
	d="
M553.028015,227.020813 
	C551.165405,227.942276 549.302795,228.863739 547.059692,229.682541 
	C548.563416,228.459610 550.447693,227.339355 552.676208,226.404266 
	C553.020447,226.589417 553.028015,227.020813 553.028015,227.020813 
z"/>
<path fill="#BE282F" opacity="1.000000" stroke="none" 
	d="
M204.380157,99.020462 
	C205.503357,97.417267 206.952377,95.740234 208.757050,94.067093 
	C207.643784,95.696205 206.174881,97.321419 204.380157,99.020462 
z"/>
<path fill="#BD272F" opacity="1.000000" stroke="none" 
	d="
M592.635925,205.885773 
	C592.082886,206.511276 591.212097,207.145782 590.005859,207.641541 
	C590.553040,206.966797 591.435608,206.430786 592.635925,205.885773 
z"/>
<path fill="#BE282F" opacity="1.000000" stroke="none" 
	d="
M209.357376,93.985115 
	C209.285904,93.521736 209.495590,92.937019 210.026947,92.285202 
	C210.111923,92.766670 209.875229,93.315224 209.357376,93.985115 
z"/>
<path fill="#090909" opacity="1.000000" stroke="none" 
	d="
M415.279633,232.451996 
	C415.545959,232.186478 416.177216,231.995560 416.956726,232.093109 
	C416.618164,232.429916 416.131378,232.478256 415.279633,232.451996 
z"/>
<path fill="#BE282F" opacity="1.000000" stroke="none" 
	d="
M210.533051,92.177490 
	C210.389023,91.942070 210.500595,91.589584 210.883270,91.125946 
	C211.032471,91.363335 210.910568,91.711876 210.533051,92.177490 
z"/>
<path fill="#E00B17" opacity="1.000000" stroke="none" 
	d="
M586.496460,208.907700 
	C586.427490,208.876266 586.493347,208.916245 586.520630,208.928284 
	C586.547913,208.940308 586.565369,208.939133 586.496460,208.907700 
z"/>
<path fill="#BD272F" opacity="1.000000" stroke="none" 
	d="
M553.255066,226.900391 
	C553.028015,227.020813 553.020447,226.589417 553.014832,226.373779 
	C553.154480,226.065353 553.299744,225.972595 553.703369,225.890182 
	C553.801941,226.193665 553.642029,226.486816 553.255066,226.900391 
z"/>
<path fill="#090909" opacity="1.000000" stroke="none" 
	d="
M469.227753,232.721802 
	C469.261963,232.451447 469.588928,232.277954 470.010315,232.363007 
	C469.910034,232.687241 469.715271,232.752945 469.227753,232.721802 
z"/>
<path fill="#C5232C" opacity="1.000000" stroke="none" 
	d="
M547.206055,99.223801 
	C547.798706,99.580238 548.096619,99.997650 548.394531,100.415062 
	C547.954041,100.527794 547.513489,100.640526 547.072998,100.753265 
	C547.019104,100.263771 546.965271,99.774261 547.206055,99.223801 
z"/>
<path fill="#D31214" opacity="1.000000" stroke="none" 
	d="
M613.441956,81.599548 
	C612.888794,82.547417 612.054077,83.820312 611.301819,83.773323 
	C609.072144,83.634048 606.874878,82.974304 604.378235,82.458885 
	C605.176331,79.547066 606.611084,78.322220 609.591614,79.799835 
	C610.758484,80.378304 611.993896,80.818283 613.441956,81.599548 
z"/>
</svg>